<svg width="32" height="32" viewBox="0 0 32 32" fill="none" xmlns="http://www.w3.org/2000/svg">
<path d="M26.6665 5.33331H5.33317C3.8665 5.33331 2.67984 6.53331 2.67984 7.99998L2.6665 24C2.6665 25.4666 3.8665 26.6666 5.33317 26.6666H26.6665C28.1332 26.6666 29.3332 25.4666 29.3332 24V7.99998C29.3332 6.53331 28.1332 5.33331 26.6665 5.33331ZM26.1332 11L16.7065 16.8933C16.2798 17.16 15.7198 17.16 15.2932 16.8933L5.8665 11C5.73281 10.9249 5.61573 10.8235 5.52236 10.7019C5.42898 10.5803 5.36125 10.441 5.32327 10.2925C5.28529 10.1439 5.27784 9.98923 5.30138 9.83772C5.32492 9.68622 5.37895 9.54106 5.46021 9.41105C5.54147 9.28103 5.64827 9.16885 5.77414 9.08131C5.90001 8.99376 6.04233 8.93266 6.1925 8.90171C6.34266 8.87076 6.49755 8.8706 6.64778 8.90124C6.79801 8.93189 6.94045 8.99269 7.0665 9.07998L15.9998 14.6666L24.9332 9.07998C25.0592 8.99269 25.2017 8.93189 25.3519 8.90124C25.5021 8.8706 25.657 8.87076 25.8072 8.90171C25.9573 8.93266 26.0997 8.99376 26.2255 9.08131C26.3514 9.16885 26.4582 9.28103 26.5395 9.41105C26.6207 9.54106 26.6748 9.68622 26.6983 9.83772C26.7218 9.98923 26.7144 10.1439 26.6764 10.2925C26.6384 10.441 26.5707 10.5803 26.4773 10.7019C26.3839 10.8235 26.2669 10.9249 26.1332 11Z" fill="#41167A"/>
</svg>
