<svg width="32" height="32" viewBox="0 0 32 32" fill="none" xmlns="http://www.w3.org/2000/svg">
<path d="M17.6171 13.0495C17.1974 12.6296 16.699 12.2965 16.1505 12.0693C15.6021 11.842 15.0142 11.7251 14.4205 11.7251C13.8268 11.7251 13.2389 11.842 12.6904 12.0693C12.1419 12.2965 11.6435 12.6296 11.2238 13.0495L6.65713 17.6175C5.8095 18.4653 5.33337 19.6151 5.3335 20.814C5.33362 22.0128 5.80999 23.1625 6.65779 24.0102C7.5056 24.8578 8.65541 25.3339 9.85427 25.3338C11.0531 25.3337 12.2028 24.8573 13.0505 24.0095L13.4785 23.6042M13.0505 17.6175C13.4702 18.0374 13.9686 18.3704 14.517 18.5977C15.0655 18.8249 15.6534 18.9419 16.2471 18.9419C16.8408 18.9419 17.4287 18.8249 17.9772 18.5977C18.5257 18.3704 19.0241 18.0374 19.4438 17.6175L24.0091 13.0495C24.8569 12.2019 25.3333 11.0521 25.3334 9.85329C25.3336 8.65443 24.8574 7.50463 24.0098 6.65682C23.1622 5.80901 22.0125 5.33264 20.8136 5.33252C19.6147 5.33239 18.4649 5.80852 17.6171 6.65615L16.2465 7.93748" stroke="#200B3D" stroke-width="2" stroke-linecap="round" stroke-linejoin="round"/>
</svg>
