<svg width="1027" height="1027" viewBox="0 0 1027 1027" fill="none" xmlns="http://www.w3.org/2000/svg">
<rect x="1.5" y="1.5" width="1024" height="1024" rx="144" fill="white"/>
<rect x="1.5" y="1.5" width="1024" height="1024" rx="144" stroke="#B9A4D6" stroke-width="3"/>
<path d="M219.857 213.705C237.902 211.673 277.294 212.821 296.411 212.842L440.805 212.93L679.16 212.911C722.386 212.883 768.264 215.093 811.238 213.177C893.505 209.512 823.884 323.139 805.164 364.971C799.059 366.46 762.082 366.078 754.134 366.102L640.725 366.535C491.001 367.608 327.379 372.804 178.205 369.306C177.612 360.167 177.166 345.497 177.833 336.536C181.372 289.006 163.726 233.372 219.857 213.705Z" fill="#6619CC"/>
<path d="M552.85 423.423C580.865 423.27 753.298 417.974 764.794 425.646C772.227 430.605 776.225 437.3 777.876 446.062C779.051 452.307 778.464 459.074 776.967 465.217C772.39 484.012 742.646 563.803 732.845 578.479C700.215 575.439 644.954 577.676 611.128 578.244C544.361 579.524 477.586 580.43 410.807 580.962L180.597 582.5C178.899 549.379 179.401 506.534 180.557 473.087C181.302 451.57 192.493 440.149 207.78 427.996C227.146 423.708 299.519 424.794 323.11 424.703L552.85 423.423Z" fill="#6619CC"/>
<path d="M198.704 723.993C238.029 722.58 280.797 723.82 320.386 722.959C338.388 722.565 385.894 721.657 401.625 724.463C417.415 739.346 390.436 795.663 383.043 813.608C366.624 815.36 331.513 814.022 313.251 813.841L179.849 812.494C179.099 790.832 175.262 749.8 185.243 730.952C188.145 725.472 193.176 725.323 198.704 723.993Z" fill="#10051E"/>
</svg>
