<svg width="48" height="48" viewBox="0 0 48 48" fill="none" xmlns="http://www.w3.org/2000/svg">
<path d="M19.128 17.46L20.158 21.186C21.128 24.696 21.612 26.452 23.038 27.25C24.464 28.05 26.274 27.578 29.894 26.638L33.734 25.638C37.354 24.698 39.164 24.228 39.988 22.846C40.812 21.462 40.328 19.706 39.356 16.196L38.328 12.472C37.358 8.96 36.872 7.204 35.448 6.406C34.02 5.606 32.21 6.078 28.59 7.02L24.75 8.016C21.13 8.956 19.32 9.428 18.498 10.812C17.674 12.194 18.158 13.95 19.128 17.46Z" fill="#521C99"/>
<path d="M4.55401 10.4941C4.6067 10.3041 4.69632 10.1264 4.81774 9.97111C4.93915 9.81581 5.08999 9.68598 5.26162 9.58902C5.43325 9.49206 5.62231 9.42988 5.81798 9.40603C6.01366 9.38219 6.21212 9.39715 6.40201 9.45005L9.80801 10.3941C10.7104 10.6397 11.5339 11.1148 12.1984 11.7729C12.8629 12.4311 13.3457 13.25 13.6 14.1501L17.902 29.7221L18.218 30.8161C19.4935 31.2862 20.5684 32.1809 21.262 33.3501L21.882 33.1581L39.622 28.5481C39.8127 28.4984 40.0113 28.4868 40.2064 28.5139C40.4016 28.541 40.5895 28.6063 40.7594 28.706C40.9294 28.8058 41.078 28.938 41.1968 29.0952C41.3157 29.2523 41.4024 29.4314 41.452 29.6221C41.5017 29.8127 41.5132 30.0113 41.4861 30.2065C41.459 30.4016 41.3937 30.5896 41.294 30.7595C41.1943 30.9294 41.0621 31.078 40.9049 31.1969C40.7477 31.3157 40.5687 31.4024 40.378 31.4521L22.704 36.0441L22.044 36.2481C22.032 38.7881 20.278 41.1121 17.624 41.8001C14.444 42.6281 11.174 40.7961 10.322 37.7121C9.47001 34.6281 11.358 31.4541 14.538 30.6281C14.6967 30.5881 14.8547 30.5534 15.012 30.5241L10.708 14.9481C10.5916 14.5482 10.374 14.1851 10.0762 13.8939C9.77836 13.6027 9.41044 13.3934 9.00801 13.2861L5.60001 12.3401C5.4101 12.2876 5.23239 12.1982 5.07703 12.077C4.92167 11.9558 4.79172 11.8052 4.69458 11.6337C4.59745 11.4623 4.53503 11.2734 4.51091 11.0779C4.4868 10.8823 4.50144 10.6839 4.55401 10.4941Z" fill="#521C99"/>
</svg>
