<svg width="236" height="64" viewBox="0 0 236 64" fill="none" xmlns="http://www.w3.org/2000/svg">
<g id="Logo">
<g id="Icon">
<path id="Vector" d="M13.8049 14.0815C14.9195 13.9566 17.3525 14.0272 18.5333 14.0285L27.4519 14.0339L42.174 14.0327C44.8439 14.031 47.6776 14.1668 50.3319 14.0491C55.4132 13.8238 51.113 20.8091 49.9567 23.3808C49.5797 23.4723 47.2957 23.4488 46.8048 23.4503L39.8001 23.4769C30.5523 23.5429 20.4461 23.8623 11.2323 23.6472C11.1956 23.0854 11.1681 22.1835 11.2093 21.6327C11.4279 18.7107 10.338 15.2906 13.8049 14.0815Z" fill="#6619CC"/>
<path id="Vector_2" d="M34.3683 27.0406C36.0956 27.0313 46.7269 26.7072 47.4357 27.1766C47.8939 27.48 48.1404 27.8896 48.2422 28.4256C48.3147 28.8076 48.2785 29.2216 48.1862 29.5974C47.904 30.7472 46.0701 35.6285 45.4658 36.5264C43.4541 36.3403 40.0469 36.4772 37.9614 36.5119C33.8449 36.5902 29.7279 36.6457 25.6107 36.6782L11.4172 36.7723C11.3126 34.7461 11.3435 32.125 11.4148 30.0788C11.4607 28.7625 12.1507 28.0638 13.0932 27.3204C14.2872 27.058 18.7493 27.1245 20.2038 27.1189L34.3683 27.0406Z" fill="#6619CC"/>
<path id="Vector_3" d="M12.5615 45.6067C14.9851 45.5197 17.6209 45.596 20.0608 45.543C21.1702 45.5188 24.098 45.4629 25.0675 45.6356C26.0406 46.5518 24.3779 50.0186 23.9223 51.1233C22.9104 51.2312 20.7465 51.1488 19.621 51.1376L11.3995 51.0547C11.3533 49.7212 11.1169 47.1954 11.732 46.035C11.9108 45.6978 12.2209 45.6885 12.5615 45.6067Z" fill="#10051E"/>
</g>
<g id="Letters">
<path id="Vector_4" d="M139.439 16.6491C139.616 16.621 139.793 16.6116 139.971 16.6212C140.858 16.6619 141.761 17.8109 142.349 18.447C142.793 21.2386 141.972 39.1576 142.71 39.8948C143.146 40.3309 144.58 40.125 145.157 40.1041C145.224 40.4272 145.488 41.5457 145.188 41.7742C144.216 42.5157 141.142 44.3415 140.067 44.419C138.686 44.5185 137.251 42.3512 136.444 41.4929C135.343 42.1461 133.44 43.6615 132.358 44.4868C131.486 44.4912 130.944 44.3724 130.128 44.1459C128.921 44.0524 126.973 42.5997 126.223 41.6769C123.014 37.7287 123.323 30.837 127.424 27.5827C130.202 25.3783 132.484 25.2997 135.887 25.6127C135.895 24.0016 135.859 21.9988 135.986 20.4245L133.139 19.8656C133.024 18.9506 132.706 18.0133 133.804 17.6589C135.635 17.0678 137.538 16.8706 139.439 16.6491ZM134.203 39.71C135.01 39.6675 135.127 39.6508 135.873 39.391C135.97 36.0434 135.896 32.6995 135.914 29.3512C134.934 29.0875 133.776 28.8462 132.757 28.9318C130.153 31.5982 129.602 38.9219 134.203 39.71Z" fill="#6619CC"/>
<path id="Vector_5" d="M66.8647 19.3696C73.4699 19.2052 80.767 19.3669 87.4454 19.3672C87.7175 21.3622 87.1539 25.0543 86.7315 27.1132L82.7628 27.1133C82.6553 25.7424 82.354 24.4472 82.2598 23.0609C80.3066 22.8871 78.3513 22.7389 76.3943 22.6162C76.4239 25.3362 76.3995 28.109 76.3989 30.8329C79.0817 30.4137 82.0412 30.571 84.5956 30.183C84.5983 31.0168 84.6629 33.823 84.5398 34.3852C84.1843 34.557 84.1146 34.4887 83.6884 34.4633C81.3528 34.4468 78.9756 34.1112 76.3943 34.1198C76.4285 36.4273 76.3998 38.8081 76.4017 41.1214C77.836 41.4417 79.4136 41.5872 80.8825 41.7565L80.8786 43.7705C78.9239 43.5856 67.4561 44.0549 66.8261 43.5442C66.4644 41.9771 68.4225 41.5169 69.5863 41.0586C69.622 34.6359 69.5152 28.1474 69.6061 21.7323C68.6491 21.5884 67.791 21.4737 66.8282 21.3813L66.8647 19.3696Z" fill="#6619CC"/>
<path id="Vector_6" d="M193.744 25.5546C194.594 25.4774 195.237 25.4456 196.091 25.4393C196.756 25.9762 197.445 26.553 197.909 27.2832C198.156 27.6714 197.968 27.965 198.101 28.4234C200.076 27.141 201.788 25.7083 204.278 25.5406C205.663 25.4473 208.721 27.1685 208.92 28.4538C209.519 32.3047 209.275 36.6777 209.252 40.6096C210.038 40.9448 211.046 41.4614 211.845 41.8318C211.885 42.4471 211.884 43.1621 211.899 43.7862C211.123 43.7042 209.458 43.7531 208.626 43.7548L202.644 43.752C202.541 40.0521 202.954 35.7129 202.575 31.9791C202.463 31.5374 202.186 30.9349 202 30.4995C200.471 29.6261 199.68 29.8471 198.11 30.534C198.131 33.8526 198.177 37.3784 198.076 40.6827C198.89 41.1949 199.319 41.4266 200.194 41.8219C200.228 42.4687 200.25 43.1162 200.258 43.7639C197.279 43.5725 193.959 43.9078 190.948 43.7777C190.283 43.7489 189.71 43.808 189.029 43.7122C188.109 42.1397 190.62 41.6294 191.62 41.3249C191.59 37.641 191.476 32.7326 191.649 29.1182C190.696 28.9925 189.874 28.7479 188.895 28.6653C188.793 28.0693 188.723 27.3514 188.648 26.7426C190.279 26.096 191.996 25.6956 193.744 25.5546Z" fill="#6619CC"/>
<path id="Vector_7" d="M96.3971 25.2957C97.225 25.1505 99.1233 25.2928 99.9099 25.5771C103.62 26.9176 103.394 29.5818 103.386 32.6947C103.387 34.1928 103.37 35.691 103.336 37.1887C103.318 38.0355 103.189 39.1363 103.576 39.8668C104.12 40.2927 105.458 40.1269 106.226 40.1046C106.309 40.6442 106.345 41.1675 106.387 41.7104C102.463 43.9274 100.93 46.1852 97.5676 41.7544C96.7097 42.647 94.066 44.3708 92.7765 44.4016C90.66 44.452 89.4914 43.8413 87.9783 42.5928C87.2893 41.5151 86.9453 40.8271 86.9488 39.495C86.9628 34.0141 93.1909 35.0449 96.8688 35.0343C96.6422 32.7056 97.5449 26.5744 93.085 28.946C92.9382 30.1319 92.6765 31.6764 92.4439 32.8468C91.5866 32.8833 89.1307 33.1518 88.5385 32.7395C87.9125 31.6447 87.8986 28.5837 88.0155 27.2966C91.5519 26.1354 92.6917 25.7882 96.3971 25.2957ZM94.3159 40.6934C95.1311 40.4834 96.0622 40.2222 96.8771 40.0614C96.8318 39.2793 97.0122 37.7442 96.613 37.3844C96.2951 37.3411 96.2293 37.3502 95.911 37.4044C95.0072 37.503 94.3238 37.5387 93.6973 38.3221C93.2047 38.9383 93.0254 39.882 93.7188 40.4647C93.9673 40.6737 94.008 40.6718 94.3159 40.6934Z" fill="#6619CC"/>
<path id="Vector_8" d="M154.352 25.3034C157.899 25.0814 161.556 26.9242 162.542 30.5769C162.691 31.1364 163.054 32.4083 162.924 32.9263C162.721 33.7341 161.302 34.9254 160.633 35.3627C158.342 35.5353 153.867 35.3308 151.436 35.2847C151.657 36.2118 151.81 37.0779 152.323 37.8979C154.288 41.0373 158.633 40.5149 161.38 38.7936C161.886 39.483 161.997 39.7584 162.318 40.5266C162.48 41.0853 162.002 41.3895 161.555 41.5863C160.086 42.2333 158.454 43.4365 157.017 44.0205C156.512 44.2246 155.98 44.3475 155.437 44.3846C153.27 44.5486 149.913 43.5934 148.31 42.0805C142.206 36.318 145.812 25.8706 154.352 25.3034ZM154.775 32.2791C155.536 32.1922 156.3 32.1256 157.064 32.0792C156.485 30.4794 155.887 28.6921 153.916 28.3909C152.377 29.5682 152.007 30.5346 151.657 32.4302C152.674 32.372 153.762 32.2912 154.775 32.2791Z" fill="#6619CC"/>
<path id="Vector_9" d="M221.071 25.3032C222.598 25.2452 226.7 25.3311 227.411 26.9874C227.895 28.114 227.307 30.6252 226.879 31.7751C225.788 31.6853 224.589 31.7168 223.485 31.7229C223.249 30.6431 222.753 29.5971 222.45 28.4559C221.503 28.2773 219.404 27.8942 219.351 29.6936C219.297 31.5038 223.075 32.6283 224.36 33.5457C225.234 34.1701 226.422 34.8274 227.129 35.7358C228.843 37.6217 228.632 40.9761 226.636 42.6125C224.737 44.1692 222.567 44.7309 220.126 44.5333C217.821 44.5746 215.047 43.6477 212.989 42.6187C213.092 41.659 214.445 38.7095 214.898 37.6504C216.859 38.9202 219.6 40.6218 221.811 41.41C222.045 40.8386 222.453 39.7835 221.989 39.2291C219.572 36.348 213.744 36.1456 213.475 31.5222C213.216 27.0403 217.401 25.5392 221.071 25.3032Z" fill="#6619CC"/>
<path id="Vector_10" d="M170.108 16.6519C171.318 16.4267 172.298 17.708 173.055 18.4861C173.215 20.6111 173.112 24.0897 173.111 26.2971L173.11 40.7018C173.586 40.8211 175.117 41.5745 175.655 41.8222C175.672 42.4778 175.657 43.1074 175.644 43.7617C172.772 43.6708 169.396 43.7586 166.485 43.7598C165.561 43.7633 164.14 43.993 163.587 43.1357C163.586 42.1672 165.751 41.5256 166.514 41.3189C166.697 34.5787 166.478 27.1733 166.533 20.3506C165.818 20.3089 164.533 20.0175 163.768 19.8759C163.665 19.2864 163.645 18.5784 163.611 17.9728C166.094 17.0663 167.521 16.9296 170.108 16.6519Z" fill="#6619CC"/>
<path id="Vector_11" d="M118.71 25.4004C121.102 25.1378 123.229 25.7601 124.329 28.0692C123.968 28.8399 120.774 32.8205 120.1 33.5416C118.969 32.9073 117.594 31.482 116.261 31.4352C116.125 31.4304 116.058 31.4264 115.959 31.5256C115.295 32.186 115.588 39.0378 115.573 40.3267C116.23 40.5117 116.882 40.7129 117.529 40.9303C118.054 41.2277 118.976 41.5925 119.56 41.8428C119.609 42.388 119.598 43.1707 119.609 43.7346C118.475 43.7571 106.736 43.8464 106.456 43.6702C106.417 43.5006 106.375 43.3175 106.376 43.1426C106.382 41.5285 108.069 42.1196 108.894 41.2577C109.384 40.7458 109.13 30.4179 109.096 29.1219C108.253 28.9667 107.234 28.753 106.395 28.6969C106.292 27.9156 106.3 27.4679 106.311 26.6858C108.594 25.7914 110.276 25.6361 112.665 25.4187C112.885 25.3822 113.278 25.3508 113.458 25.4674C114.357 26.0483 115.367 27.8286 115.691 28.7533C116.598 27.426 117.35 26.2919 118.71 25.4004Z" fill="#6619CC"/>
<path id="Vector_12" d="M182.475 25.4146C182.577 25.4124 182.681 25.4137 182.784 25.4186C183.777 25.4701 184.549 26.5619 185.207 27.2903C185.338 28.8407 185.28 30.9023 185.277 32.4917L185.282 40.6735C185.974 40.9049 187.055 41.4218 187.742 41.7305C187.832 42.4632 187.811 42.9873 187.794 43.7194C184.843 43.8327 181.426 43.7595 178.438 43.7589C177.589 43.7443 176.851 43.7595 176.003 43.7956C176.018 43.3562 176.023 42.9091 176.033 42.4687C177.083 41.7633 177.444 41.6881 178.64 41.3121C178.696 38.1789 178.623 35.0429 178.649 31.9093C178.657 30.9858 178.633 30.062 178.739 29.1431C176.65 28.8038 175.857 29.102 175.982 26.7151C177.87 25.8081 180.42 25.5879 182.475 25.4146Z" fill="#6619CC"/>
<path id="Vector_13" d="M181.388 15.7405C181.516 15.7701 181.642 15.8036 181.767 15.8414C183.348 16.3225 185.004 18.1004 185.784 19.5511C185.023 21.0517 183.808 22.6305 182.364 23.5224C181.242 23.1941 179.168 21.5934 178.343 20.7601C177.078 19.4834 180.441 16.5263 181.388 15.7405Z" fill="#6619CC"/>
</g>
</g>
</svg>
