<svg width="48" height="48" viewBox="0 0 48 48" fill="none" xmlns="http://www.w3.org/2000/svg">
<path fill-rule="evenodd" clip-rule="evenodd" d="M14 13.9999C14.0004 12.1079 14.5375 10.2547 15.5491 8.65576C16.5606 7.0568 18.005 5.77761 19.7145 4.96677C21.424 4.15593 23.3285 3.84672 25.2067 4.07504C27.085 4.30336 28.8599 5.05984 30.3253 6.25664C31.7908 7.45343 32.8867 9.04142 33.4857 10.8362C34.0846 12.6309 34.1622 14.5588 33.7092 16.3958C33.2563 18.2329 32.2915 19.9037 30.9269 21.2143C29.5623 22.5249 27.8538 23.4215 26 23.7999V33.9999C26 34.5304 25.7893 35.0391 25.4142 35.4141C25.0391 35.7892 24.5304 35.9999 24 35.9999C23.4696 35.9999 22.9609 35.7892 22.5858 35.4141C22.2107 35.0391 22 34.5304 22 33.9999V23.7999C19.7413 23.3389 17.7112 22.1116 16.2534 20.3257C14.7956 18.5399 13.9995 16.3052 14 13.9999ZM18.978 32.1999C19.0178 32.4597 19.006 32.7248 18.9433 32.98C18.8806 33.2352 18.7682 33.4755 18.6125 33.6873C18.4569 33.899 18.261 34.078 18.0361 34.214C17.8113 34.35 17.5618 34.4404 17.302 34.4799C14.746 34.8699 12.716 35.4579 11.382 36.1099C10.712 36.4379 10.314 36.7359 10.108 36.9539L10.066 36.9999C10.132 37.0779 10.246 37.1919 10.446 37.3379C11.006 37.7519 11.944 38.2079 13.282 38.6259C15.936 39.4559 19.726 39.9999 24 39.9999C28.274 39.9999 32.064 39.4559 34.718 38.6259C36.058 38.2079 36.994 37.7519 37.554 37.3379C37.754 37.1919 37.868 37.0779 37.934 36.9999L37.892 36.9539C37.686 36.7359 37.288 36.4379 36.618 36.1099C35.284 35.4579 33.254 34.8699 30.698 34.4799C30.4353 34.4439 30.1825 34.356 29.9541 34.2213C29.7257 34.0867 29.5264 33.908 29.3677 33.6956C29.209 33.4832 29.0941 33.2414 29.0297 32.9842C28.9653 32.727 28.9527 32.4596 28.9926 32.1974C29.0325 31.9353 29.1242 31.6838 29.2622 31.4574C29.4002 31.231 29.5818 31.0344 29.7965 30.8788C30.0112 30.7233 30.2547 30.612 30.5128 30.5514C30.7709 30.4908 31.0385 30.4822 31.3 30.5259C34.076 30.9459 36.544 31.6199 38.378 32.5179C39.292 32.9659 40.146 33.5179 40.794 34.2019C41.454 34.8959 42 35.8419 42 36.9999C42 38.6219 40.952 39.7999 39.932 40.5539C38.872 41.3379 37.466 41.9579 35.912 42.4439C32.772 43.4239 28.564 43.9999 24 43.9999C19.436 43.9999 15.226 43.4239 12.09 42.4439C10.534 41.9579 9.13 41.3379 8.07 40.5539C7.048 39.7999 6 38.6219 6 36.9999C6 35.8399 6.546 34.8959 7.206 34.1999C7.856 33.5159 8.708 32.9659 9.622 32.5199C11.456 31.6199 13.926 30.9479 16.698 30.5259C16.9578 30.4861 17.2228 30.4979 17.478 30.5606C17.7332 30.6234 17.9736 30.7358 18.1853 30.8914C18.3971 31.0471 18.5761 31.2429 18.7121 31.4678C18.8481 31.6926 18.9385 31.9401 18.978 32.1999Z" fill="#521C99"/>
</svg>
