<svg width="48" height="48" viewBox="0 0 48 48" fill="none" xmlns="http://www.w3.org/2000/svg">
<path d="M12.858 4.8259C13.1102 4.52495 13.2343 4.13714 13.2037 3.74571C13.1731 3.35429 12.9903 2.99046 12.6944 2.73232C12.3986 2.47419 12.0134 2.34234 11.6214 2.36507C11.2294 2.3878 10.862 2.5633 10.598 2.8539L8.01401 5.8139C6.54878 7.49303 5.72049 9.63384 5.67401 11.8619L5.56001 17.2999C5.55179 17.6977 5.70194 18.0825 5.97743 18.3696C6.25292 18.6568 6.63119 18.8227 7.02901 18.8309C7.42684 18.8391 7.81163 18.689 8.09875 18.4135C8.38587 18.138 8.55179 17.7597 8.56001 17.3619L8.67201 11.9259C8.7041 10.4014 9.27116 8.93662 10.274 7.7879L12.858 4.8259Z" fill="#521C99"/>
<path fill-rule="evenodd" clip-rule="evenodd" d="M12.474 15.4C12.6083 13.2603 13.5531 11.2522 15.1159 9.78447C16.6787 8.31679 18.7421 7.49986 20.886 7.5H22V6C22 5.46957 22.2107 4.96086 22.5858 4.58579C22.9609 4.21071 23.4696 4 24 4C24.5305 4 25.0392 4.21071 25.4142 4.58579C25.7893 4.96086 26 5.46957 26 6V7.5H27.114C29.258 7.49986 31.3214 8.31679 32.8842 9.78447C34.447 11.2522 35.3917 13.2603 35.526 15.4L35.968 22.468C36.1389 25.1624 37.0435 27.7588 38.584 29.976C38.9028 30.4341 39.0975 30.9669 39.1493 31.5226C39.2012 32.0783 39.1083 32.638 38.8798 33.1471C38.6513 33.6563 38.2949 34.0977 37.8453 34.4283C37.3957 34.7589 36.8682 34.9676 36.314 35.034L29.5 35.85V38C29.5 39.4587 28.9206 40.8576 27.8891 41.8891C26.8577 42.9205 25.4587 43.5 24 43.5C22.5413 43.5 21.1424 42.9205 20.1109 41.8891C19.0795 40.8576 18.5 39.4587 18.5 38V35.85L11.686 35.032C11.1322 34.9654 10.605 34.7567 10.1557 34.4262C9.70639 34.0957 9.35019 33.6546 9.12173 33.1457C8.89326 32.6369 8.8003 32.0775 8.85186 31.5221C8.90343 30.9667 9.09778 30.4341 9.41602 29.976C10.9565 27.7588 11.8612 25.1624 12.032 22.468L12.474 15.4ZM21.5 38C21.5 38.663 21.7634 39.2989 22.2323 39.7678C22.7011 40.2366 23.337 40.5 24 40.5C24.6631 40.5 25.2989 40.2366 25.7678 39.7678C26.2366 39.2989 26.5 38.663 26.5 38V36.5H21.5V38Z" fill="#521C99"/>
<path d="M35.286 2.70991C34.9864 2.97146 34.8029 3.34129 34.7759 3.73809C34.7489 4.1349 34.8805 4.52618 35.142 4.82591L37.726 7.78591C38.7285 8.93544 39.2949 10.4009 39.326 11.9259L39.44 17.3599C39.444 17.5569 39.4869 17.7511 39.566 17.9316C39.6452 18.112 39.7591 18.2751 39.9012 18.4115C40.0434 18.5479 40.211 18.655 40.3946 18.7266C40.5781 18.7982 40.774 18.833 40.971 18.8289C41.168 18.8248 41.3622 18.782 41.5426 18.7029C41.7231 18.6237 41.8861 18.5098 42.0226 18.3677C42.159 18.2255 42.266 18.0578 42.3377 17.8743C42.4093 17.6907 42.444 17.4949 42.44 17.2979L42.326 11.8619C42.2795 9.63385 41.4512 7.49304 39.986 5.81391L37.402 2.85391C37.1404 2.55429 36.7706 2.3708 36.3738 2.3438C35.977 2.31679 35.5857 2.44848 35.286 2.70991Z" fill="#521C99"/>
</svg>
