<svg width="48" height="48" viewBox="0 0 48 48" fill="none" xmlns="http://www.w3.org/2000/svg">
<path d="M43.998 16C43.9979 15.6371 43.899 15.281 43.712 14.97L38.294 5.94C37.9371 5.34968 37.4342 4.86115 36.8339 4.52138C36.2335 4.18162 35.5558 4.00207 34.866 4H13.13C11.734 4 10.42 4.744 9.702 5.942L4.284 14.97C4.09698 15.281 3.99812 15.6371 3.998 16C3.998 18.01 4.77 19.828 5.998 21.236V40C5.998 40.5304 6.20871 41.0391 6.58379 41.4142C6.95886 41.7893 7.46757 42 7.998 42H23.998C24.5284 42 25.0371 41.7893 25.4122 41.4142C25.7873 41.0391 25.998 40.5304 25.998 40V30H33.998V40C33.998 40.5304 34.2087 41.0391 34.5838 41.4142C34.9589 41.7893 35.4676 42 35.998 42H39.998C40.5284 42 41.0371 41.7893 41.4122 41.4142C41.7873 41.0391 41.998 40.5304 41.998 40V21.236C43.226 19.828 43.998 18.01 43.998 16ZM39.966 16.502C39.8438 17.4682 39.3733 18.3565 38.6428 19.0005C37.9122 19.6445 36.9719 19.9999 35.998 20C33.792 20 31.998 18.206 31.998 16C31.998 15.864 31.948 15.744 31.92 15.616L31.96 15.608L30.438 8H34.866L39.966 16.502ZM20.012 16.13L21.636 8H26.358L27.984 16.13C27.914 18.276 26.158 20 23.998 20C21.838 20 20.082 18.276 20.012 16.13ZM13.13 8H17.558L16.038 15.608L16.078 15.616C16.048 15.744 15.998 15.864 15.998 16C15.998 18.206 14.204 20 11.998 20C11.0241 19.9999 10.0838 19.6445 9.35324 19.0005C8.62271 18.3565 8.15222 17.4682 8.03 16.502L13.13 8ZM19.998 32H11.998V26H19.998V32Z" fill="#521C99"/>
</svg>
