<svg width="24" height="24" viewBox="0 0 24 24" fill="none" xmlns="http://www.w3.org/2000/svg">
<style>
  #arrow {
    transform-origin: 12px 7px;
    animation: arrow-arc-swipe 1.8s cubic-bezier(0.65, 0, 0.35, 1) infinite;
  }

  @keyframes arrow-arc-swipe {
    0%, 12%, 88%, 100% { transform: rotate(0deg); }
    32% { transform: rotate(-12deg); }
    58% { transform: rotate(12deg); }
    78% { transform: rotate(-4deg); }
  }

  @media (prefers-reduced-motion: reduce) {
    #arrow { animation: none; }
  }
</style>
<g id="swipe">
<path id="hand" d="M11.8246 22C11.4246 22 11.0413 21.925 10.6746 21.775C10.3079 21.625 9.98294 21.4083 9.69961 21.125L4.59961 16L5.34961 15.225C5.61628 14.9583 5.92894 14.7793 6.28761 14.688C6.64628 14.5967 7.00028 14.6007 7.34961 14.7L8.99961 15.175V7C8.99961 6.71667 9.09561 6.47934 9.28761 6.288C9.47961 6.09667 9.71694 6.00067 9.99961 6C10.2823 5.99934 10.5199 6.09534 10.7126 6.288C10.9053 6.48067 11.0009 6.718 10.9996 7V14H11.9996V11C11.9996 10.7167 12.0956 10.4793 12.2876 10.288C12.4796 10.0967 12.7169 10.0007 12.9996 10C13.2823 9.99934 13.5199 10.0953 13.7126 10.288C13.9053 10.4807 14.0009 10.718 13.9996 11V14H14.9996V12C14.9996 11.7167 15.0956 11.4793 15.2876 11.288C15.4796 11.0967 15.7169 11.0007 15.9996 11C16.2823 10.9993 16.5199 11.0953 16.7126 11.288C16.9053 11.4807 17.0009 11.718 16.9996 12V14H17.9996C17.9996 13.7167 18.0956 13.4793 18.2876 13.288C18.4796 13.0967 18.7169 13.0007 18.9996 13C19.2823 12.9993 19.5199 13.0953 19.7126 13.288C19.9053 13.4807 20.0009 13.718 19.9996 14V18C19.9996 19.1 19.6079 20.0417 18.8246 20.825C18.0413 21.6083 17.0996 22 15.9996 22H11.8246Z" fill="black"/>
<path id="arrow" d="M17 7H22V2H20.5V4.025C19.3 3.04167 17.975 2.29167 16.525 1.775C15.075 1.25833 13.5667 1 12 1C10.4333 1 8.925 1.25833 7.475 1.775C6.025 2.29167 4.7 3.04167 3.5 4.025V2H2V7H7V5.5H4.1C5.2 4.53333 6.425 3.79167 7.775 3.275C9.125 2.75833 10.5333 2.5 12 2.5C13.4667 2.5 14.875 2.75833 16.225 3.275C17.575 3.79167 18.8 4.53333 19.9 5.5H17V7Z" fill="black"/>
</g>
</svg>
